<?xml version="1.0" encoding="UTF-8" ?>
<!DOCTYPE svg PUBLIC "-//W3C//DTD SVG 1.1//EN" "http://www.w3.org/Graphics/SVG/1.1/DTD/svg11.dtd">
<svg width="1001pt" height="1001pt" viewBox="0 0 1001 1001" version="1.1" xmlns="http://www.w3.org/2000/svg">
<g id="#ffffffff">
<path fill="#ffffff" opacity="1.00" d=" M 623.40 419.15 C 624.80 418.71 625.28 419.19 624.85 420.60 C 623.45 421.03 622.96 420.54 623.40 419.15 Z" />
</g>
<g id="#000000ff">
<path fill="#000000" opacity="1.00" d=" M 79.44 4.57 C 83.08 4.43 90.35 4.15 93.99 4.01 C 365.66 3.95 637.33 4.08 909.01 3.95 C 924.41 3.40 939.66 6.82 954.11 11.92 C 970.35 19.74 984.85 32.66 991.13 49.94 C 997.04 62.44 996.52 76.52 996.99 89.99 C 997.03 368.33 996.97 646.68 997.02 925.02 C 997.82 937.83 992.81 950.01 987.25 961.25 C 980.56 974.46 968.21 983.47 955.63 990.60 C 943.12 996.83 928.65 996.83 915.01 997.00 C 646.68 997.01 378.34 996.99 110.00 997.00 C 95.15 996.88 80.26 997.60 65.43 996.42 C 51.74 994.82 39.81 987.10 29.33 978.64 C 18.64 969.90 11.98 957.23 7.59 944.37 C 4.56 930.83 4.14 916.82 3.96 903.00 C 4.04 633.00 3.98 362.99 3.99 92.99 C 4.10 87.10 4.22 81.19 5.13 75.36 C 5.85 69.78 5.33 63.98 7.60 58.69 C 13.21 42.52 22.83 26.74 37.92 17.87 C 49.92 9.08 64.84 5.66 79.44 4.57 M 60.13 16.26 C 51.64 18.78 44.41 24.27 37.36 29.41 C 21.50 41.88 11.23 62.25 13.32 82.59 C 17.44 88.55 24.50 91.51 30.08 95.91 C 59.27 117.04 89.05 137.33 118.42 158.22 C 119.59 149.04 123.19 140.26 129.03 133.06 C 135.92 123.94 147.25 119.92 158.16 118.31 C 140.54 95.51 125.60 70.77 108.14 47.85 C 99.54 36.58 91.77 24.72 83.78 13.02 C 75.90 14.17 67.91 14.52 60.13 16.26 M 85.98 13.02 C 96.07 28.69 107.38 43.51 118.52 58.43 C 129.32 74.87 141.13 90.60 152.08 106.94 C 156.13 112.20 159.52 120.77 167.96 118.11 C 392.88 117.74 617.81 118.30 842.73 117.83 C 848.13 109.87 853.32 101.77 858.87 93.90 C 878.48 67.11 897.14 39.63 917.03 13.02 C 640.01 12.98 362.99 12.99 85.98 13.02 M 919.29 13.02 C 893.75 47.88 869.18 83.39 844.14 118.59 C 851.49 119.87 859.18 121.00 865.24 125.76 C 876.39 132.98 882.26 145.92 883.86 158.74 C 907.29 142.23 929.89 124.54 954.01 109.01 C 966.06 101.45 977.00 92.29 989.02 84.67 C 989.86 61.49 979.14 37.35 959.02 24.99 C 947.63 16.43 933.02 14.67 919.29 13.02 M 13.14 86.59 C 12.95 363.19 12.83 639.80 13.20 916.40 C 47.85 891.49 82.86 867.07 117.84 842.62 C 118.22 738.42 117.89 634.21 118.00 530.00 C 117.83 406.82 118.33 283.64 117.75 160.47 C 82.75 136.03 47.88 111.39 13.14 86.59 M 988.95 87.02 C 975.69 96.43 962.76 106.32 949.00 115.00 C 926.46 129.59 905.66 146.66 883.18 161.33 C 882.75 284.88 883.12 408.44 883.00 532.00 C 883.14 635.21 882.71 738.41 883.21 841.62 C 893.29 847.74 902.53 855.07 912.09 861.95 C 937.03 880.97 964.07 897.02 988.96 916.10 C 989.02 639.74 989.04 363.38 988.95 87.02 M 160.38 120.45 C 147.76 121.17 134.74 126.92 127.94 137.97 C 121.50 146.50 119.82 157.56 119.98 167.98 C 120.02 387.99 120.01 608.00 119.99 828.01 C 120.47 839.37 119.60 851.91 126.13 861.92 C 132.95 875.71 148.90 883.39 163.98 882.02 C 388.99 881.97 614.01 882.03 839.03 881.99 C 859.36 883.78 881.05 867.21 880.96 846.04 C 881.08 617.69 880.93 389.32 881.03 160.96 C 881.90 149.08 876.46 137.19 867.05 129.95 C 858.38 122.12 846.31 120.15 835.02 120.01 C 613.34 119.99 391.66 120.01 169.98 119.99 C 167.58 120.11 162.78 120.33 160.38 120.45 M 883.43 844.09 C 882.72 855.18 878.49 866.48 869.65 873.63 C 862.84 880.19 853.52 882.96 844.43 884.64 C 866.72 917.18 890.11 948.93 912.75 981.24 C 914.85 983.71 916.48 986.85 919.18 988.84 C 929.13 988.81 939.91 988.80 948.92 983.86 C 961.57 977.66 973.03 968.44 980.04 956.05 C 986.13 944.51 989.96 931.55 989.03 918.40 C 977.05 910.69 966.07 901.56 954.01 893.99 C 929.75 878.39 907.05 860.59 883.43 844.09 M 18.98 914.96 C 17.16 916.66 14.27 917.76 13.16 920.18 C 11.46 943.88 24.82 966.95 44.90 979.15 C 56.34 987.19 70.84 989.48 84.54 988.98 C 91.51 976.53 100.97 965.75 109.08 954.06 C 125.91 931.06 140.60 906.53 158.83 884.55 C 148.85 883.13 138.43 880.36 131.36 872.66 C 124.37 864.93 119.63 855.18 118.29 844.82 C 85.10 868.09 51.94 891.38 18.98 914.96 M 161.29 884.15 C 150.72 898.64 139.26 912.51 129.79 927.79 C 116.35 948.80 100.16 967.90 86.80 988.94 C 363.23 989.04 639.67 989.03 916.11 988.95 C 901.10 968.20 885.89 947.59 871.60 926.34 C 860.91 912.80 851.62 898.27 841.86 884.08 C 615.00 884.00 388.15 883.85 161.29 884.15 Z" />
<path fill="#000000" opacity="1.00" d=" M 189.40 165.54 C 204.24 164.38 219.13 165.13 234.00 165.00 C 424.01 164.96 614.01 165.09 804.02 164.93 C 814.50 164.64 826.43 167.05 833.03 175.96 C 836.27 181.30 835.53 188.03 836.02 193.97 C 835.93 402.33 836.11 610.69 835.93 819.05 C 834.82 830.09 823.35 836.96 813.00 836.83 C 778.99 838.10 745.01 835.52 711.00 835.98 C 569.33 836.01 427.67 836.02 286.00 835.98 C 252.70 835.49 219.40 838.31 186.11 836.65 C 174.23 836.12 165.25 824.38 165.25 812.99 C 164.28 788.66 165.25 764.32 166.00 740.00 C 166.03 585.00 165.95 430.00 166.03 275.00 C 166.40 245.99 163.85 216.99 165.21 187.99 C 166.56 175.91 177.02 165.64 189.40 165.54 M 177.46 175.13 C 178.63 176.78 179.87 178.39 181.15 179.96 C 183.99 178.70 186.86 177.51 189.80 176.48 C 189.82 174.77 189.87 171.34 189.90 169.63 C 185.72 171.40 181.59 173.27 177.46 175.13 M 192.00 170.02 C 192.00 171.51 192.00 174.49 192.01 175.98 C 397.67 176.01 603.33 176.02 809.00 175.98 C 809.00 174.49 809.00 171.51 808.99 170.02 C 603.33 169.99 397.67 169.98 192.00 170.02 M 811.12 169.43 C 811.12 171.27 811.11 174.95 811.11 176.79 C 814.48 177.36 817.83 179.11 821.32 179.11 C 822.71 178.14 823.71 176.72 824.82 175.46 C 820.29 173.35 815.76 171.26 811.12 169.43 M 175.12 176.99 C 173.19 181.28 171.22 185.55 169.46 189.91 C 171.21 189.86 174.70 189.76 176.44 189.71 C 177.56 186.85 178.83 184.04 180.09 181.24 C 178.85 180.18 176.36 178.06 175.12 176.99 M 822.18 181.96 C 823.20 184.59 824.24 187.23 825.26 189.88 C 827.10 189.86 830.78 189.82 832.61 189.80 C 830.76 185.46 828.68 181.24 826.76 176.95 C 825.24 178.63 823.72 180.31 822.18 181.96 M 191.41 181.54 C 180.93 182.22 179.85 193.87 180.00 201.97 C 179.97 398.65 180.04 595.33 179.97 792.01 C 180.14 799.46 180.05 807.04 181.65 814.37 C 182.45 817.76 185.20 821.06 188.94 820.94 C 385.62 821.10 582.32 820.93 779.00 821.02 C 790.60 820.96 802.22 821.49 813.81 820.66 C 816.87 819.16 821.48 817.24 821.02 813.06 C 820.99 618.04 820.99 423.02 821.01 228.00 C 820.89 214.80 821.62 201.56 820.50 188.39 C 819.02 182.54 811.49 180.05 806.04 180.90 C 616.03 181.13 426.01 180.94 236.00 181.00 C 221.14 181.16 206.24 180.32 191.41 181.54 M 169.02 192.01 C 168.98 398.00 169.00 604.00 169.01 810.00 C 170.75 810.00 174.24 810.00 175.98 809.99 C 176.02 604.00 176.00 398.00 175.99 192.00 C 174.25 192.00 170.76 192.00 169.02 192.01 M 825.02 192.01 C 824.98 398.00 824.99 604.00 825.01 810.00 C 826.75 810.00 830.24 810.00 831.98 809.99 C 832.02 604.00 832.00 398.00 831.99 192.00 C 830.25 192.00 826.76 192.00 825.02 192.01 M 169.30 812.15 C 170.77 816.91 173.04 821.36 175.54 825.66 C 177.01 824.36 178.47 823.07 179.93 821.78 C 178.76 818.59 177.56 815.38 176.62 812.14 C 174.79 812.14 171.13 812.14 169.30 812.15 M 825.39 812.21 C 824.49 815.07 823.20 817.86 822.75 820.85 C 823.59 822.65 824.90 824.18 826.06 825.80 C 829.23 821.76 831.60 817.11 832.69 812.06 C 830.86 812.10 827.21 812.17 825.39 812.21 M 181.23 822.86 C 179.89 824.57 178.59 826.30 177.35 828.10 C 181.67 829.73 186.01 831.37 190.51 832.49 C 191.22 826.23 185.42 824.97 181.23 822.86 M 810.39 832.81 C 815.00 831.38 819.57 829.76 824.08 828.01 C 823.63 826.48 823.17 824.94 822.74 823.43 C 817.61 825.22 808.80 824.54 810.39 832.81 M 192.00 826.02 C 192.00 827.51 192.00 830.49 192.01 831.98 C 397.67 832.01 603.33 832.02 809.00 831.98 C 809.00 830.49 809.00 827.51 808.99 826.02 C 603.33 825.99 397.67 825.98 192.00 826.02 Z" />
<path fill="#000000" opacity="1.00" d=" M 334.36 413.40 C 338.07 409.33 343.14 405.59 349.00 406.19 C 365.94 405.79 382.92 405.52 399.84 406.30 C 402.99 408.25 406.30 410.66 407.92 414.13 C 408.04 417.73 403.36 419.05 401.38 421.39 C 398.26 423.98 393.60 422.13 390.04 423.03 C 373.35 423.28 356.67 422.88 339.99 423.01 C 338.45 419.77 333.48 417.22 334.36 413.40 Z" />
<path fill="#000000" opacity="1.00" d=" M 488.44 406.60 C 506.59 405.32 524.84 405.89 543.03 406.09 C 547.09 406.35 548.89 411.18 551.03 414.07 C 549.95 418.19 545.17 420.57 541.52 422.36 C 522.51 423.47 503.28 423.54 484.30 422.61 C 481.95 420.12 475.58 415.91 479.28 412.30 C 482.04 410.05 484.85 407.39 488.44 406.60 Z" />
<path fill="#000000" opacity="1.00" d=" M 621.50 415.03 C 623.93 409.55 629.88 405.56 636.00 406.19 C 652.68 405.69 669.37 405.81 686.06 405.99 C 690.58 405.77 692.98 410.75 694.91 414.09 C 694.71 418.18 689.61 420.33 686.53 422.43 C 666.63 423.89 646.66 422.61 626.74 422.96 C 628.64 432.18 626.00 441.37 624.50 450.43 C 623.01 458.07 622.08 465.83 620.48 473.45 C 620.61 478.71 616.01 481.35 612.77 484.52 C 616.73 483.03 620.60 481.00 624.99 481.22 C 641.61 480.46 658.26 481.14 674.90 481.06 C 677.07 484.62 679.24 488.16 681.40 491.75 C 676.82 494.23 672.63 498.39 667.04 497.83 C 649.07 498.50 631.09 497.83 613.12 497.96 C 611.24 495.54 609.39 493.12 607.55 490.70 C 608.85 489.19 610.19 487.70 611.56 486.26 C 607.74 484.45 604.44 481.78 601.19 479.14 C 604.70 461.64 606.85 443.87 610.59 426.44 C 613.95 422.44 619.47 420.11 621.50 415.03 M 623.40 419.15 C 622.96 420.54 623.45 421.03 624.85 420.60 C 625.28 419.19 624.80 418.71 623.40 419.15 Z" />
<path fill="#000000" opacity="1.00" d=" M 466.51 431.53 C 466.67 424.58 472.86 420.97 477.83 417.43 C 480.25 420.12 482.66 422.80 485.12 425.46 C 483.27 441.60 479.44 457.46 476.48 473.43 C 476.63 480.87 469.41 483.63 464.17 486.93 C 461.84 482.74 456.59 478.90 459.26 473.40 C 461.63 459.44 464.05 445.47 466.51 431.53 Z" />
<path fill="#000000" opacity="1.00" d=" M 395.38 432.50 C 395.11 424.93 402.90 422.00 407.98 418.14 C 415.21 425.47 412.21 435.67 410.58 444.47 C 408.19 455.70 407.26 467.23 404.23 478.32 C 402.44 482.23 398.48 484.84 394.88 487.01 C 391.39 485.86 389.29 481.92 387.75 478.74 C 389.40 463.22 393.09 447.95 395.38 432.50 Z" />
<path fill="#000000" opacity="1.00" d=" M 539.65 426.48 C 542.23 422.99 546.24 420.92 549.72 418.46 C 552.19 420.76 554.66 423.09 557.15 425.39 C 556.00 439.56 552.67 453.43 550.61 467.47 C 549.28 472.90 549.65 479.89 544.15 483.17 C 542.15 484.33 540.18 487.54 537.39 486.74 C 534.78 484.35 532.65 481.52 530.31 478.91 C 533.66 461.48 535.83 443.80 539.65 426.48 Z" />
<path fill="#000000" opacity="1.00" d=" M 320.50 489.31 C 325.23 486.00 329.45 480.31 336.01 481.19 C 353.25 480.48 370.52 481.10 387.79 481.13 C 390.06 484.46 392.39 487.78 394.68 491.11 C 391.72 493.32 388.88 495.79 385.58 497.47 C 372.42 498.61 359.19 497.93 346.00 498.12 C 338.69 497.84 331.17 498.69 324.08 496.50 C 330.29 501.95 326.78 510.94 325.88 517.88 C 323.29 529.59 322.52 541.70 319.11 553.21 C 316.32 557.38 311.30 559.31 307.09 561.73 C 304.74 557.61 299.59 553.83 302.26 548.40 C 304.63 534.44 307.05 520.47 309.51 506.53 C 309.60 500.20 315.08 496.84 319.26 493.14 C 320.86 493.66 322.45 494.21 324.04 494.77 C 322.83 492.97 321.64 491.15 320.50 489.31 Z" />
<path fill="#000000" opacity="1.00" d=" M 453.53 506.55 C 453.70 499.61 459.84 495.97 464.82 492.44 C 466.99 495.33 469.11 498.23 471.28 501.16 C 469.23 517.01 466.19 532.71 463.50 548.45 C 463.60 555.62 456.76 558.65 452.01 562.52 C 449.39 559.65 446.87 556.70 444.33 553.81 C 447.63 538.10 450.15 522.24 453.53 506.55 Z" />
<path fill="#000000" opacity="1.00" d=" M 525.51 507.53 C 525.72 500.23 532.31 496.44 537.82 493.17 C 540.37 497.41 545.08 501.19 543.65 506.84 C 541.14 521.06 538.27 535.25 535.48 549.43 C 535.63 556.87 528.41 559.63 523.17 562.93 C 520.84 558.73 515.59 554.90 518.26 549.40 C 520.63 535.44 523.05 521.47 525.51 507.53 Z" />
<path fill="#000000" opacity="1.00" d=" M 669.53 507.55 C 669.70 500.61 675.84 496.97 680.82 493.44 C 683.00 496.33 685.10 499.23 687.28 502.16 C 685.61 516.01 682.76 529.69 680.61 543.47 C 679.65 547.48 679.56 551.90 677.59 555.62 C 674.90 558.45 671.41 560.39 668.21 562.59 C 665.59 559.95 663.03 557.30 660.38 554.72 C 663.61 539.03 666.16 523.21 669.53 507.55 Z" />
<path fill="#000000" opacity="1.00" d=" M 307.39 564.34 C 312.24 561.16 316.49 555.53 323.01 556.22 C 340.28 555.46 357.57 556.13 374.85 556.08 C 377.06 559.47 379.29 562.81 381.52 566.22 C 377.34 569.03 373.66 573.80 368.00 572.86 C 349.65 573.46 331.27 572.80 312.91 573.05 C 311.05 570.13 309.16 567.29 307.39 564.34 Z" />
<path fill="#000000" opacity="1.00" d=" M 450.44 564.44 C 455.37 561.64 459.84 556.88 466.02 557.28 C 483.25 556.38 500.51 557.13 517.76 557.13 C 520.36 559.94 523.04 562.77 525.71 565.55 C 521.68 568.85 517.93 573.93 512.00 572.84 C 493.32 573.48 474.62 572.79 455.93 573.03 C 454.08 570.15 452.22 567.34 450.44 564.44 Z" />
<path fill="#000000" opacity="1.00" d=" M 595.33 564.38 C 599.11 560.37 604.11 556.56 610.00 557.19 C 626.93 556.79 643.90 556.50 660.82 557.30 C 664.08 559.34 666.28 563.04 668.83 565.99 C 665.83 568.25 662.93 570.76 659.58 572.47 C 639.65 573.93 619.65 572.49 599.71 573.15 C 598.61 570.17 594.61 567.80 595.33 564.38 Z" />
<path fill="#000000" opacity="1.00" d=" M 559.61 557.38 C 562.60 559.98 567.63 563.49 565.16 568.07 C 563.45 573.84 553.89 572.99 553.07 567.06 C 550.86 562.61 557.24 560.00 559.61 557.38 Z" />
<path fill="#000000" opacity="1.00" d=" M 473.44 683.70 C 482.40 673.82 491.69 664.21 501.66 655.34 C 510.78 664.82 521.28 673.13 529.08 683.77 C 521.65 692.66 513.31 700.87 504.12 707.93 C 504.20 705.26 504.37 699.91 504.45 697.23 C 507.76 691.89 512.68 687.81 516.93 683.26 C 511.69 678.18 506.54 673.03 501.33 667.94 C 496.29 673.17 491.16 678.33 486.08 683.53 C 489.56 687.43 493.66 690.98 496.30 695.54 C 496.64 699.54 496.86 703.56 496.96 707.59 C 488.27 700.49 481.13 691.81 473.44 683.70 Z" />
<path fill="#000000" opacity="1.00" d=" M 320.44 695.90 C 330.62 685.72 342.20 677.08 353.71 668.48 C 364.56 677.24 375.35 686.09 385.58 695.59 C 370.44 696.08 355.27 696.43 340.15 695.61 C 346.44 688.52 356.33 688.59 365.16 688.57 C 361.25 685.13 357.37 681.69 353.55 678.18 C 347.13 683.19 340.99 688.55 334.58 693.58 C 330.66 696.84 325.03 695.06 320.44 695.90 Z" />
<path fill="#000000" opacity="1.00" d=" M 617.40 670.35 C 632.25 669.90 647.12 669.65 661.97 670.30 C 659.99 672.76 657.96 675.90 654.57 676.37 C 648.31 676.99 642.05 677.06 635.79 677.21 C 640.33 681.09 644.82 684.99 649.31 688.94 C 656.44 683.23 663.04 676.86 670.41 671.45 C 673.87 669.55 678.14 670.41 681.94 670.00 C 672.70 681.01 660.70 689.15 649.81 698.39 C 638.42 690.50 628.15 681.15 617.09 672.83 C 617.16 672.21 617.32 670.97 617.40 670.35 Z" />
</g>
</svg>
